# Blender v2.75 (sub 0) OBJ File: ''
# www.blender.org
o Icosphere
v -1.779860 0.549197 1.479636
v -2.503460 1.101982 0.953916
v -1.503475 1.101982 0.628996
v -0.885435 1.101982 1.479636
v -1.503475 1.101982 2.330276
v -2.503460 1.101982 2.005356
v -2.056245 1.996412 0.628996
v -1.056260 1.996412 0.953916
v -1.056260 1.996412 2.005356
v -2.056245 1.996412 2.330276
v -2.674285 1.996412 1.479636
v -1.779860 2.549197 1.479636
vn -0.187600 -0.794700 -0.577400
vn -0.607100 -0.794700 0.000000
vn 0.491100 -0.794700 -0.356800
vn 0.491100 -0.794700 0.356800
vn -0.187600 -0.794700 0.577400
vn -0.982200 -0.187600 0.000000
vn -0.303500 -0.187600 -0.934200
vn 0.794600 -0.187600 -0.577400
vn 0.794600 -0.187600 0.577400
vn -0.303500 -0.187600 0.934200
vn -0.794600 0.187600 -0.577400
vn 0.303500 0.187600 -0.934200
vn 0.982200 0.187600 0.000000
vn 0.303500 0.187600 0.934200
vn -0.794600 0.187600 0.577400
vn -0.491100 0.794700 -0.356800
vn 0.187600 0.794700 -0.577400
vn 0.607100 0.794700 0.000000
vn 0.187600 0.794700 0.577400
vn -0.491100 0.794700 0.356800
s off
f 1//1 2//1 3//1
f 2//2 1//2 6//2
f 1//3 3//3 4//3
f 1//4 4//4 5//4
f 1//5 5//5 6//5
f 2//6 6//6 11//6
f 3//7 2//7 7//7
f 4//8 3//8 8//8
f 5//9 4//9 9//9
f 6//10 5//10 10//10
f 2//11 11//11 7//11
f 3//12 7//12 8//12
f 4//13 8//13 9//13
f 5//14 9//14 10//14
f 6//15 10//15 11//15
f 7//16 11//16 12//16
f 8//17 7//17 12//17
f 9//18 8//18 12//18
f 10//19 9//19 12//19
f 11//20 10//20 12//20
